<svg xmlns="http://www.w3.org/2000/svg" viewBox="0 0 231.01 239.95">
  <defs>
    <style>
      .cls-1 {
        fill: #ededed;
      }
    </style>
  </defs>
  <title>资源 1</title>
  <g id="图层_2" data-name="图层 2">
    <g id="图层_1-2" data-name="图层 1">
      <g>
        <path class="cls-1" d="M146.32,141.78c-7.5,15-18.4,27.2-30.8,38.5-12.4-11.3-23.2-23.5-30.9-38.7-4.9,1.2-9.9,2.4-14.9,3.7-14.5,3.9-28.6,8.8-41.8,16.1-8.6,4.8-16.4,10.4-22.2,18.5-3.2,4.5-5.5,9.5-5.6,15.1-.2,7.8-.2,15.5.3,23.3.6,8.5,5.5,14.3,13.1,17.8a45.89,45.89,0,0,0,19.3,3.8q82.8.15,165.5-.1a54.93,54.93,0,0,0,16.5-2.8c9.2-2.8,15.2-9.2,15.8-19.1a204.71,204.71,0,0,0,.1-23.5c-.3-7.1-3.9-13.1-8.6-18.3-6.9-7.7-15.6-13-24.7-17.6C183.82,151.68,160.92,144.18,146.32,141.78Z"/>
        <path class="cls-1" d="M59.72,53.48c1,21.3,4.4,40.9,15,58.5,7.4,12.2,17.5,21,31.7,24,16.7,3.5,30.8-1.9,42.4-14.1,9.9-10.5,15.1-23.4,18.5-37.2a121.33,121.33,0,0,0,3.8-35c-.8-13.6-4.4-26.2-14.7-36-7.5-7.1-16.6-10.7-26.5-12.4-11.9-2-23.8-1.8-35.5,1.6-19,5.5-29.8,18.3-33.3,37.6A116.09,116.09,0,0,0,59.72,53.48Z"/>
      </g>
    </g>
  </g>
</svg>
