<?xml version="1.0" encoding="utf-8"?>

<svg version="1.1" id="headerlogo-svg" xmlns="http://www.w3.org/2000/svg" xmlns:xlink="http://www.w3.org/1999/xlink" x="0px"
	 y="0px" viewBox="0 0 577 351" style="enable-background:new 0 0 577 351;" xml:space="preserve">
<g fill="#eee">
	<path d="M449.9,175.4c-5.4,27.7-17.7,44.3-37.7,55.1c-5.1,2.7-10.7,4.1-16.1,6.2c-17.9,6.7-35.8,13.4-53.7,20.1
		c-9.8,3.7-19.7,7.1-29.6,10.9c-13,4.8-25.7,9.7-38.7,14.4c-21.4,7.9-42.7,15.8-64.1,23.7c-9.5,3.5-18.7,7.8-28.6,10.1
		c-24.2,5.4-45.9-0.7-63.8-17.8c-19.1-18.1-26-41-20.3-66.1c6.2-27.8,24.5-45.9,52.2-53.7c7.9-2.3,7.8-1.9,7.7-10.2
		c-0.6-25.2,6.5-47.9,22.5-67.7c11.4-14.2,25.6-24.8,42.5-30.7c36.2-12.5,70.2-7.3,100.2,17.3c6.1,4.9,11.1,11.1,16.2,17.1
		c2.5,3,4.6,3.4,7.8,1.5c11.2-6.7,23.7-9.4,36.5-8.6c25.6,1.7,45.6,13.5,58.5,36C449.7,147.4,452.4,163.6,449.9,175.4z"/>
	<path d="M464.1,161.4c-0.5-14.4-5.4-26.8-12.3-38.3c-8.2-13.3-19.1-23.6-33.2-30.9c-16.7-8.7-34.1-11-52.3-8.5
		c-5.9,0.9-11.6,3.2-17.5,4.6c-1.5,0.3-3.9,0.3-4.7-0.6c-13.8-15.2-30.5-26-49.7-33c-0.7-0.3-1.4-0.7-2.8-1.4
		c1.4-1.1,2.4-2.1,3.6-2.7c33.4-20.4,77.9-12.2,101.4,19.1c2.7,3.6,4.4,3.7,8.4,1.6c14-7.3,28.6-7.8,43.2-2.3
		c27,10.2,41.1,38,33.8,65.9C479.7,143.7,472.4,154.7,464.1,161.4z"/>
</g>
</svg>
